HIERARCHY
ROOT Hips
{
	OFFSET -0.001795 -0.223333 0.028219
	CHANNELS 6 Xposition Yposition Zposition Zrotation Yrotation Xrotation 
	JOINT LeftUpLeg
	{
		OFFSET 0.069520 -0.091406 -0.006815
		CHANNELS 3 Zrotation Yrotation Xrotation
		JOINT LeftLeg
		{
			OFFSET 0.034277 -0.375199 -0.004496
			CHANNELS 3 Zrotation Yrotation Xrotation
			JOINT LeftFoot
			{
				OFFSET -0.013596 -0.397961 -0.043693
				CHANNELS 3 Zrotation Yrotation Xrotation
				JOINT LeftToe
				{
					OFFSET 0.026358 -0.055791 0.119288
					CHANNELS 3 Zrotation Yrotation Xrotation
					End Site
					{
						OFFSET 0.000000 0.000000 0.000000
					}
				}
			}
		}
	}
	JOINT RightUpLeg
	{
		OFFSET -0.067670 -0.090522 -0.004320
		CHANNELS 3 Zrotation Yrotation Xrotation
		JOINT RightLeg
		{
			OFFSET -0.038290 -0.382569 -0.008850
			CHANNELS 3 Zrotation Yrotation Xrotation
			JOINT RightFoot
			{
				OFFSET 0.015774 -0.398415 -0.042312
				CHANNELS 3 Zrotation Yrotation Xrotation
				JOINT RightToe
				{
					OFFSET -0.025372 -0.048144 0.123348
					CHANNELS 3 Zrotation Yrotation Xrotation
					End Site
					{
						OFFSET 0.000000 0.000000 0.000000
					}
				}
			}
		}
	}
	JOINT Spine
	{
		OFFSET -0.002533 0.108963 -0.026696
		CHANNELS 3 Zrotation Yrotation Xrotation
		JOINT Spine1
		{
			OFFSET 0.005487 0.135180 0.001092
			CHANNELS 3 Zrotation Yrotation Xrotation
			JOINT Spine2
			{
				OFFSET 0.001457 0.052922 0.025425
				CHANNELS 3 Zrotation Yrotation Xrotation
				JOINT Neck
				{
					OFFSET -0.002778 0.213870 -0.042857
					CHANNELS 3 Zrotation Yrotation Xrotation
					JOINT Head
					{
						OFFSET 0.005152 0.064970 0.051349
						CHANNELS 3 Zrotation Yrotation Xrotation
						End Site
						{
							OFFSET 0.000000 0.000000 0.000000
						}
					}
				}
				JOINT LeftShoulder
				{
					OFFSET 0.078845 0.121749 -0.034090
					CHANNELS 3 Zrotation Yrotation Xrotation
					JOINT LeftArm
					{
						OFFSET 0.090977 0.030469 -0.008868
						CHANNELS 3 Zrotation Yrotation Xrotation
						JOINT LeftForeArm
						{
							OFFSET 0.259612 -0.012772 -0.027456
							CHANNELS 3 Zrotation Yrotation Xrotation
							JOINT LeftHand
							{
								OFFSET 0.249234 0.008986 -0.001171
								CHANNELS 3 Zrotation Yrotation Xrotation
								End Site
								{
									OFFSET 0.000000 0.000000 0.000000
								}
							}
						}
					}
				}
				JOINT RightShoulder
				{
					OFFSET -0.081759 0.118833 -0.038615
					CHANNELS 3 Zrotation Yrotation Xrotation
					JOINT RightArm
					{
						OFFSET -0.096012 0.032551 -0.009143
						CHANNELS 3 Zrotation Yrotation Xrotation
						JOINT RightForeArm
						{
							OFFSET -0.253742 -0.013329 -0.021401
							CHANNELS 3 Zrotation Yrotation Xrotation
							JOINT RightHand
							{
								OFFSET -0.255298 0.007772 -0.005559
								CHANNELS 3 Zrotation Yrotation Xrotation
								End Site
								{
									OFFSET 0.000000 0.000000 0.000000
								}
							}
						}
					}
				}
			}
		}
	}
}
MOTION
Frames: 7
Frame Time: 0.050000
-0.139965 0.950795 0.119343 -5.175345 -58.892290 -1.638581 7.144138 1.491998 -3.572919 -3.442856 3.070854 12.644173 22.582991 23.940849 72.791413 0.000000 0.000000 0.000000 3.877551 0.108822 -3.835528 -1.847743 2.394870 15.835040 23.843311 28.037610 18.760141 0.000000 0.000000 0.000000 4.400053 0.985744 22.350884 -6.434409 0.599281 -20.006547 -2.870014 -0.781284 31.134617 15.330952 -11.132682 -29.271970 0.000000 0.000000 0.000000 -8.391322 -12.306321 9.679233 -37.414671 -24.100304 1.126743 -126.491681 -61.303737 124.836244 0.000000 0.000000 0.000000 15.610435 5.687969 -7.537288 46.662807 15.296877 0.643117 114.892558 53.993020 58.915579 0.000000 0.000000 0.000000 
-0.136903 0.951485 0.110656 -5.812031 -60.798241 -1.020795 7.375389 1.644171 -3.681527 -2.898281 2.946911 12.484157 22.532535 23.828819 73.739709 0.000000 0.000000 0.000000 4.192685 0.189547 -4.777939 -1.436123 2.501972 16.336612 25.380071 28.410192 20.641278 0.000000 0.000000 0.000000 4.643123 1.104299 22.728506 -6.086905 0.432171 -20.050618 -2.695479 -1.251090 31.309259 14.921681 -10.980436 -29.825159 0.000000 0.000000 0.000000 -7.913306 -12.311252 9.714939 -37.396219 -23.905324 1.188600 -128.754086 -60.856737 128.445011 0.000000 0.000000 0.000000 15.405637 6.022369 -7.864697 46.257759 14.488360 0.534063 115.464115 53.948491 58.358493 0.000000 0.000000 0.000000 
-0.134055 0.952407 0.103149 -6.101735 -63.184956 -0.654816 7.197723 1.703433 -3.537199 -2.243266 2.756388 12.079847 22.464959 23.777729 75.007092 0.000000 0.000000 0.000000 3.958101 0.292933 -5.742198 -0.376947 2.800279 17.816056 25.149796 28.691791 20.128192 0.000000 0.000000 0.000000 4.791731 1.271921 23.048452 -5.911788 0.313794 -20.202553 -2.634927 -1.199139 31.556254 14.516284 -10.804637 -30.411678 0.000000 0.000000 0.000000 -6.573634 -12.402305 9.301229 -38.127644 -23.960345 1.664800 -130.924766 -60.289660 132.203715 0.000000 0.000000 0.000000 14.836604 5.956929 -8.143694 46.172749 13.616676 0.268333 116.374348 52.871435 56.586473 0.000000 0.000000 0.000000 
-0.132095 0.952760 0.096588 -6.207596 -65.138586 -0.817461 6.940636 1.722723 -3.281772 -1.506603 2.632587 12.220377 22.229247 23.709215 75.945164 0.000000 0.000000 0.000000 3.135728 0.359245 -6.200373 1.793627 3.196694 20.146080 22.900223 28.573099 17.137115 0.000000 0.000000 0.000000 5.404636 1.407134 23.629336 -5.964819 0.284647 -20.489914 -2.640785 -2.255958 31.704701 13.605445 -10.385475 -31.606842 0.000000 0.000000 0.000000 -6.679021 -12.438954 9.672154 -38.648149 -24.161375 1.946365 -132.596168 -59.541521 134.726064 0.000000 0.000000 0.000000 14.081937 6.589517 -8.101185 45.681712 13.142419 0.178567 118.286968 52.511450 56.515369 0.000000 0.000000 0.000000 
-0.131131 0.951514 0.090538 -6.522146 -67.085890 -0.785935 6.502144 1.692092 -2.767845 -0.372640 2.302761 12.081122 22.584129 23.934596 77.051655 0.000000 0.000000 0.000000 2.488442 0.379010 -6.242021 3.849650 3.817805 22.992799 18.641481 28.870968 11.285470 0.000000 0.000000 0.000000 6.036224 1.461639 23.857690 -5.681756 0.136706 -20.814556 -2.790405 -2.618083 32.149470 13.381013 -10.479867 -31.484403 0.000000 0.000000 0.000000 -7.305656 -12.073410 10.084706 -38.948786 -24.893776 2.220515 -134.933370 -58.386461 137.856137 0.000000 0.000000 0.000000 13.849093 6.956594 -8.321442 44.788206 12.600309 0.098934 120.250639 51.866840 56.796079 0.000000 0.000000 0.000000 
-0.130372 0.949286 0.084269 -6.256921 -68.894457 -1.954422 6.035076 1.661271 -2.190632 0.661104 2.318623 13.115163 22.517855 23.987241 77.773994 0.000000 0.000000 0.000000 2.367191 0.234124 -4.710960 4.042729 4.480384 25.020417 13.760300 30.212682 4.127384 0.000000 0.000000 0.000000 6.530156 1.742317 24.859188 -5.461287 0.039614 -21.231903 -3.136844 -2.941393 32.435733 13.274890 -10.438599 -32.359733 0.000000 0.000000 0.000000 -7.778084 -12.041226 10.481780 -39.494716 -26.006460 2.747561 -137.266227 -57.344590 140.930555 0.000000 0.000000 0.000000 13.029581 7.144382 -8.052007 45.303972 13.757941 0.220214 122.342264 52.365925 58.970556 0.000000 0.000000 0.000000 
-0.128389 0.946624 0.077440 -6.904073 -71.039793 -2.464838 6.170517 1.820163 -2.281210 1.575013 2.887311 15.700113 21.747872 23.633139 78.073213 0.000000 0.000000 0.000000 2.361515 0.111684 -2.850125 4.040241 4.826694 25.815025 10.982466 32.098452 -0.365644 0.000000 0.000000 0.000000 7.420230 2.011198 25.940563 -5.461076 -0.055836 -20.866348 -3.015163 -3.267865 31.880965 12.713962 -10.338624 -32.009366 0.000000 0.000000 0.000000 -8.930383 -11.695468 11.143241 -40.716820 -27.303574 3.295660 -138.256029 -57.283130 142.572330 0.000000 0.000000 0.000000 12.527919 7.448128 -7.875133 46.574394 15.473596 0.642623 123.251547 53.514810 61.060268 0.000000 0.000000 0.000000 
